<?xml version="1.0" encoding="utf-8" standalone="no"?>
<!DOCTYPE svg PUBLIC "-//W3C//DTD SVG 1.1//EN"
  "http://www.w3.org/Graphics/SVG/1.1/DTD/svg11.dtd">
<svg xmlns:xlink="http://www.w3.org/1999/xlink" width="1152pt" height="648pt" viewBox="0 0 1152 648" xmlns="http://www.w3.org/2000/svg" version="1.1">
 <metadata>
  <rdf:RDF xmlns:dc="http://purl.org/dc/elements/1.1/" xmlns:cc="http://creativecommons.org/ns#" xmlns:rdf="http://www.w3.org/1999/02/22-rdf-syntax-ns#">
   <cc:Work>
    <dc:type rdf:resource="http://purl.org/dc/dcmitype/StillImage"/>
    <dc:date>2022-06-02T11:31:37.357235</dc:date>
    <dc:format>image/svg+xml</dc:format>
    <dc:creator>
     <cc:Agent>
      <dc:title>Matplotlib v3.5.2, https://matplotlib.org/</dc:title>
     </cc:Agent>
    </dc:creator>
   </cc:Work>
  </rdf:RDF>
 </metadata>
 <defs>
  <style type="text/css">*{stroke-linejoin: round; stroke-linecap: butt}</style>
 </defs>
 <g id="figure_1">
  <g id="patch_1">
   <path d="M 0 648 
L 1152 648 
L 1152 0 
L 0 0 
L 0 648 
z
" style="fill: none"/>
  </g>
  <g id="axes_1">
   <g id="line2d_1">
    <path d="M 184.581818 395.995709 
L 192.780165 387.060623 
L 200.978512 259.241486 
L 209.17686 434.183876 
L 217.375207 488.87095 
L 225.573554 259.897188 
L 233.771901 511.956237 
L 241.970248 357.313186 
L 250.168595 350.560323 
L 258.366942 457.97136 
L 266.565289 386.101121 
L 274.763636 521.735828 
L 282.961983 369.68659 
L 291.160331 472.979083 
L 299.358678 298.904759 
L 307.557025 449.613207 
L 315.755372 424.47554 
L 323.953719 470.530254 
L 332.152066 421.283046 
L 340.350413 409.85144 
L 348.54876 480.816467 
L 356.747107 492.824109 
L 364.945455 433.678953 
L 373.143802 258.574084 
L 381.342149 211.968454 
L 389.540496 518.79844 
L 397.738843 273.947755 
L 405.93719 304.072019 
L 414.135537 500.139236 
L 422.333884 484.540707 
L 430.532231 475.776469 
L 438.730579 282.023383 
L 446.928926 520.181075 
L 455.127273 288.055373 
L 463.32562 398.357363 
L 471.523967 304.388966 
L 479.722314 470.797757 
L 487.920661 326.592027 
L 496.119008 149.874663 
L 504.317355 445.049784 
L 512.515702 536.162664 
L 520.71405 466.004632 
L 528.912397 407.47329 
L 537.110744 344.176488 
L 545.309091 440.706581 
L 553.507438 367.009676 
L 561.705785 369.279092 
L 569.904132 264.610266 
L 578.102479 490.55251 
L 586.300826 348.26982 
L 594.499174 436.057884 
L 602.697521 422.702964 
L 610.895868 202.637309 
L 619.094215 459.025578 
L 627.292562 472.298128 
L 635.490909 417.47592 
L 643.689256 544.761818 
L 651.887603 541.926721 
L 660.08595 506.773178 
L 668.284298 513.286497 
L 676.482645 480.383118 
L 684.680992 531.279701 
L 692.879339 415.311476 
L 701.077686 488.323879 
L 709.276033 487.35174 
L 717.47438 389.196703 
L 725.672727 533.211631 
L 733.871074 339.486321 
L 742.069421 485.47094 
L 750.267769 417.025556 
L 758.466116 413.78589 
L 766.664463 200.917059 
L 774.86281 299.423046 
L 783.061157 336.904628 
L 791.259504 462.219636 
L 799.457851 172.091529 
L 807.656198 382.047363 
L 815.854545 384.241738 
L 824.052893 282.805567 
L 832.25124 190.289028 
L 840.449587 305.730361 
L 848.647934 403.073898 
L 856.846281 118.981477 
L 865.044628 432.682125 
L 873.242975 223.265781 
L 881.441322 339.895906 
L 889.639669 331.607579 
L 897.838017 392.135069 
L 906.036364 287.404882 
L 914.234711 169.598454 
L 922.433058 287.387598 
L 930.631405 152.063024 
L 938.829752 382.829942 
L 947.028099 327.718174 
L 955.226446 99.998182 
L 963.424793 103.16796 
L 971.62314 192.725912 
L 979.821488 357.048145 
L 988.019835 450.068194 
L 996.218182 211.422982 
" clip-path="url(#pb13e31c4c4)" style="fill: none; stroke: #ffffff; stroke-width: 3; stroke-linecap: square"/>
   </g>
  </g>
 </g>
 <defs>
  <clipPath id="pb13e31c4c4">
   <rect x="144" y="77.76" width="892.8" height="489.24"/>
  </clipPath>
 </defs>
</svg>
