<?xml version="1.0" encoding="utf-8" standalone="no"?>
<!DOCTYPE svg PUBLIC "-//W3C//DTD SVG 1.1//EN"
  "http://www.w3.org/Graphics/SVG/1.1/DTD/svg11.dtd">
<svg xmlns:xlink="http://www.w3.org/1999/xlink" width="432pt" height="432pt" viewBox="0 0 432 432" xmlns="http://www.w3.org/2000/svg" version="1.1">
 <metadata>
  <rdf:RDF xmlns:dc="http://purl.org/dc/elements/1.1/" xmlns:cc="http://creativecommons.org/ns#" xmlns:rdf="http://www.w3.org/1999/02/22-rdf-syntax-ns#">
   <cc:Work>
    <dc:type rdf:resource="http://purl.org/dc/dcmitype/StillImage"/>
    <dc:date>2022-05-27T14:38:54.375409</dc:date>
    <dc:format>image/svg+xml</dc:format>
    <dc:creator>
     <cc:Agent>
      <dc:title>Matplotlib v3.5.2, https://matplotlib.org/</dc:title>
     </cc:Agent>
    </dc:creator>
   </cc:Work>
  </rdf:RDF>
 </metadata>
 <defs>
  <style type="text/css">*{stroke-linejoin: round; stroke-linecap: butt}</style>
 </defs>
 <g id="figure_1">
  <g id="patch_1">
   <path d="M 0 432 
L 432 432 
L 432 0 
L 0 0 
L 0 432 
z
" style="fill: none"/>
  </g>
  <g id="axes_1">
   <g id="Quiver_1">
    <path d="M 130.090909 125.396591 
L 178.759171 125.396591 
L 178.188489 124.255227 
L 183.895307 125.967273 
L 178.188489 127.679318 
L 178.759171 126.537955 
L 130.090909 126.537955 
L 130.090909 125.396591 
" clip-path="url(#p1fdfa5af39)" style="fill: #ff0000"/>
   </g>
   <g id="Quiver_2">
    <path d="M 129.520227 125.967273 
L 129.520227 78.687512 
L 128.378864 79.258194 
L 130.090909 73.551376 
L 131.802955 79.258194 
L 130.661591 78.687512 
L 130.661591 125.967273 
L 129.520227 125.967273 
" clip-path="url(#p1fdfa5af39)" style="fill: #0000ff"/>
   </g>
   <g id="line2d_1">
    <path d="M 76.286511 125.967273 
L 76.40811 122.445276 
L 76.751386 119.091889 
L 77.315262 115.766379 
L 78.097585 112.482255 
L 79.095129 109.253574 
L 80.304664 106.091742 
L 81.72081 103.011694 
L 83.339262 100.02377 
L 85.152489 97.142804 
L 87.154032 94.37969 
L 89.33636 91.745752 
L 91.690864 89.252326 
L 94.207859 86.910494 
L 96.87766 84.730069 
L 99.68843 82.72139 
L 102.629408 80.892745 
L 105.688757 79.252196 
L 108.852487 77.807784 
L 112.107685 76.565795 
L 115.441439 75.531642 
L 118.838683 74.710427 
L 122.284351 74.106027 
L 125.764454 73.721108 
L 129.263927 73.557567 
L 132.766629 73.616231 
L 136.257493 73.896774 
L 139.722531 74.398053 
L 143.145601 75.117652 
L 146.512714 76.052448 
L 149.808804 77.198032 
L 153.019883 78.549205 
L 156.13196 80.099649 
L 159.132123 81.842423 
L 162.007459 83.769429 
L 164.74613 85.872031 
L 167.337376 88.141281 
L 169.770435 90.567052 
L 172.035623 93.138913 
L 174.124331 95.846396 
L 176.026873 98.675932 
L 177.736794 101.616665 
L 179.247637 104.656483 
L 180.55402 107.783809 
L 181.650565 110.985104 
L 182.532966 114.246793 
L 183.197995 117.55582 
L 183.642424 120.891312 
L 183.866252 124.244935 
L 183.895307 125.967273 
L 183.895307 125.967273 
" clip-path="url(#p1fdfa5af39)" style="fill: none; stroke: #008000; stroke-opacity: 0.5; stroke-width: 1.5; stroke-linecap: square"/>
   </g>
   <g id="line2d_2">
    <path d="M 76.286511 125.967273 
L 76.40811 129.489269 
L 76.751386 132.842657 
L 77.315262 136.168166 
L 78.097585 139.45229 
L 79.095129 142.680971 
L 80.304664 145.842803 
L 81.72081 148.922852 
L 83.339262 151.910776 
L 85.152489 154.791742 
L 87.154032 157.554856 
L 89.33636 160.188794 
L 91.690864 162.68222 
L 94.207859 165.024051 
L 96.87766 167.204476 
L 99.68843 169.213155 
L 102.629408 171.0418 
L 105.688757 172.682349 
L 108.852487 174.126762 
L 112.107685 175.36875 
L 115.441439 176.402904 
L 118.838683 177.224118 
L 122.284351 177.828518 
L 125.764454 178.213437 
L 129.263927 178.376978 
L 132.766629 178.318314 
L 136.257493 178.037772 
L 139.722531 177.536492 
L 143.145601 176.816894 
L 146.512714 175.882098 
L 149.808804 174.736513 
L 153.019883 173.385341 
L 156.13196 171.834897 
L 159.132123 170.092123 
L 162.007459 168.165117 
L 164.74613 166.062514 
L 167.337376 163.793264 
L 169.770435 161.367494 
L 172.035623 158.795632 
L 174.124331 156.08815 
L 176.026873 153.258613 
L 177.736794 150.317881 
L 179.247637 147.278063 
L 180.55402 144.150736 
L 181.650565 140.949442 
L 182.532966 137.687752 
L 183.197995 134.378725 
L 183.642424 131.043233 
L 183.866252 127.689611 
L 183.895307 125.967273 
L 183.895307 125.967273 
" clip-path="url(#p1fdfa5af39)" style="fill: none; stroke: #008000; stroke-opacity: 0.5; stroke-width: 1.5; stroke-linecap: square"/>
   </g>
  </g>
  <g id="axes_2">
   <g id="Quiver_3">
    <path d="M 312.709091 125.396591 
L 327.909105 125.396591 
L 327.338424 124.255227 
L 333.045242 125.967273 
L 327.338424 127.679318 
L 327.909105 126.537955 
L 312.709091 126.537955 
L 312.709091 125.396591 
" clip-path="url(#pcd263e9a8b)" style="fill: #ff0000"/>
   </g>
   <g id="Quiver_4">
    <path d="M 312.238129 125.644981 
L 350.009801 70.449601 
L 348.745584 70.275979 
L 353.381393 66.533232 
L 351.571359 72.209732 
L 350.951726 71.094185 
L 313.180053 126.289565 
L 312.238129 125.644981 
" clip-path="url(#pcd263e9a8b)" style="fill: #0000ff"/>
   </g>
   <g id="line2d_3">
    <path d="M 292.37294 125.967273 
L 297.312051 118.957225 
L 302.363018 112.179557 
L 307.548793 105.591815 
L 312.766798 99.320122 
L 317.914134 93.477397 
L 322.895427 88.15487 
L 327.627984 83.418104 
L 332.041812 79.308757 
L 336.085352 75.840951 
L 339.727287 73.002801 
L 342.953994 70.761908 
L 345.767648 69.069926 
L 348.184898 67.866867 
L 350.232304 67.087169 
L 351.945674 66.66365 
L 353.365722 66.533249 
L 354.535271 66.64171 
L 355.497079 66.948541 
L 356.288811 67.431391 
L 356.938893 68.088546 
L 357.461893 68.937941 
L 357.85642 70.013111 
L 358.105757 71.357503 
L 358.180676 73.020366 
L 358.04241 75.052999 
L 357.64569 77.505508 
L 356.94172 80.42364 
L 355.881168 83.845604 
L 354.417807 87.797351 
L 352.512211 92.288942 
L 350.133901 97.314399 
L 347.267974 102.842007 
L 343.914542 108.820489 
L 340.091722 115.176417 
L 335.846339 121.800952 
L 333.045242 125.967273 
L 333.045242 125.967273 
" clip-path="url(#pcd263e9a8b)" style="fill: none; stroke: #008000; stroke-opacity: 0.5; stroke-width: 1.5; stroke-linecap: square"/>
   </g>
   <g id="line2d_4">
    <path d="M 292.37294 125.967273 
L 287.717725 132.97732 
L 283.567928 139.629781 
L 279.864791 145.980802 
L 276.647355 151.932915 
L 273.93649 157.406292 
L 271.732711 162.345502 
L 270.018483 166.719112 
L 268.759967 170.521889 
L 267.912845 173.766888 
L 267.424866 176.486481 
L 267.241141 178.724026 
L 267.30746 180.531994 
L 267.574339 181.967244 
L 268.001115 183.087414 
L 268.559623 183.945545 
L 269.237556 184.585773 
L 270.039806 185.037802 
L 270.98619 185.312492 
L 272.107192 185.40096 
L 273.439379 185.276513 
L 275.021304 184.89827 
L 276.891203 184.215112 
L 279.084265 183.169671 
L 281.630988 181.701931 
L 284.554365 179.753328 
L 287.8674 177.270983 
L 291.570299 174.212395 
L 295.649152 170.549156 
L 300.072288 166.272865 
L 304.793023 161.395278 
L 309.745412 155.955109 
L 314.84872 150.016249 
L 320.009027 143.668395 
L 325.127694 137.018839 
L 330.096532 130.200712 
L 333.045242 125.967273 
L 333.045242 125.967273 
" clip-path="url(#pcd263e9a8b)" style="fill: none; stroke: #008000; stroke-opacity: 0.5; stroke-width: 1.5; stroke-linecap: square"/>
   </g>
  </g>
  <g id="axes_3">
   <g id="Quiver_5">
    <path d="M 130.653834 303.778957 
L 138.428413 350.451704 
L 139.460493 349.701239 
L 138.709418 355.611802 
L 136.082942 350.263859 
L 137.302562 350.639244 
L 129.527984 303.966497 
L 130.653834 303.778957 
" clip-path="url(#pd3ee644912)" style="fill: #ff0000"/>
   </g>
   <g id="Quiver_6">
    <path d="M 130.001797 303.309046 
L 178.03831 295.714961 
L 177.296404 294.67671 
L 183.200555 295.476631 
L 177.831078 298.058799 
L 178.216535 296.842323 
L 130.180021 304.436409 
L 130.001797 303.309046 
" clip-path="url(#pd3ee644912)" style="fill: #0000ff"/>
   </g>
   <g id="line2d_5">
    <path d="M 121.4724 252.133653 
L 125.108013 251.682096 
L 128.610983 251.476662 
L 132.115809 251.493963 
L 135.61205 251.733526 
L 139.082124 252.193883 
L 142.515512 252.873509 
L 145.894432 253.768845 
L 149.204686 254.875762 
L 152.432015 256.18908 
L 155.563888 257.703347 
L 158.586026 259.41126 
L 161.485978 261.30523 
L 164.251424 263.376585 
L 166.87139 265.616438 
L 169.335022 268.014823 
L 171.631835 270.560654 
L 173.753339 273.243589 
L 175.691163 276.052208 
L 177.437343 278.973964 
L 178.985509 281.997118 
L 180.329623 285.108819 
L 181.46492 288.297075 
L 182.386738 291.547756 
L 183.091919 294.848615 
L 183.577628 298.185233 
L 183.842183 301.544068 
L 183.884719 304.912513 
L 183.705051 308.276791 
L 183.303899 311.622981 
L 182.68271 314.93811 
L 181.843999 318.207974 
L 180.790625 321.420439 
L 179.527059 324.56099 
L 178.057458 327.618351 
L 176.387899 330.578817 
L 174.52436 333.430821 
L 172.4747 336.161438 
L 170.246339 338.759939 
L 167.849061 341.214154 
L 165.291939 343.514154 
L 162.585513 345.649777 
L 159.74052 347.611889 
L 156.767396 349.39247 
L 153.681898 350.981593 
L 150.495284 352.373232 
L 147.221628 353.560912 
L 143.876106 354.539049 
L 140.481741 355.301879 
L 138.709418 355.611802 
L 138.709418 355.611802 
" clip-path="url(#pd3ee644912)" style="fill: none; stroke: #008000; stroke-opacity: 0.5; stroke-width: 1.5; stroke-linecap: square"/>
   </g>
   <g id="line2d_6">
    <path d="M 121.4724 252.133653 
L 117.876777 252.825281 
L 114.494633 253.707251 
L 111.17775 254.801933 
L 107.943526 256.103391 
L 104.806504 257.605076 
L 101.777939 259.300962 
L 98.870043 261.183807 
L 96.096705 263.243982 
L 93.467622 265.473581 
L 90.994229 267.8623 
L 88.687225 270.39889 
L 86.554674 273.07358 
L 84.60551 275.874336 
L 82.847265 278.789347 
L 81.286422 281.806968 
L 79.929555 284.913416 
L 78.781148 288.09736 
L 77.846064 291.344226 
L 77.127434 294.641836 
L 76.627951 297.977021 
L 76.349575 301.335662 
L 76.293275 304.703802 
L 76.459182 308.068674 
L 76.846673 311.416571 
L 77.454276 314.733918 
L 78.279685 318.007274 
L 79.319763 321.223329 
L 80.570524 324.368905 
L 82.027607 327.431947 
L 83.684856 330.398561 
L 85.536127 333.256973 
L 87.574493 335.995533 
L 89.792145 338.602732 
L 92.17931 341.066308 
L 94.727724 343.376947 
L 97.426183 345.523676 
L 100.264283 347.497519 
L 103.228984 349.288856 
L 106.309897 350.890831 
L 109.492132 352.29518 
L 112.764012 353.496313 
L 116.110147 354.488167 
L 119.517165 355.266485 
L 122.969086 355.827419 
L 126.453391 356.168701 
L 129.955058 356.288457 
L 133.459647 356.185785 
L 136.927443 355.863777 
L 138.709418 355.611802 
L 138.709418 355.611802 
" clip-path="url(#pd3ee644912)" style="fill: none; stroke: #008000; stroke-opacity: 0.5; stroke-width: 1.5; stroke-linecap: square"/>
   </g>
  </g>
  <g id="axes_4">
   <g id="Quiver_7">
    <path d="M 313.167861 303.533305 
L 322.003817 315.476172 
L 322.581936 314.338557 
L 324.599847 319.944528 
L 319.829314 316.375091 
L 321.086277 316.155017 
L 312.250321 304.21215 
L 313.167861 303.533305 
" clip-path="url(#pb705e8c4eb)" style="fill: #ff0000"/>
   </g>
   <g id="Quiver_8">
    <path d="M 312.688791 303.302407 
L 380.830049 300.877011 
L 380.219128 299.756669 
L 385.983234 301.264633 
L 380.340927 303.178593 
L 380.870648 302.017652 
L 312.729391 304.443048 
L 312.688791 303.302407 
" clip-path="url(#pb705e8c4eb)" style="fill: #0000ff"/>
   </g>
   <g id="line2d_7">
    <path d="M 300.818334 287.800927 
L 309.631374 287.604684 
L 318.299949 287.636929 
L 326.883532 287.890265 
L 335.21269 288.356868 
L 343.129133 289.020598 
L 350.501644 289.858743 
L 357.220961 290.842533 
L 363.216587 291.940495 
L 368.447635 293.119116 
L 372.908364 294.345939 
L 376.621277 295.590802 
L 379.630977 296.826715 
L 381.999992 298.031328 
L 383.802906 299.188131 
L 385.118323 300.286077 
L 386.024753 301.321383 
L 386.59338 302.297124 
L 386.882896 303.224406 
L 386.933071 304.121939 
L 386.75953 305.012918 
L 386.352545 305.920125 
L 385.679819 306.862192 
L 384.691708 307.851115 
L 383.326968 308.891713 
L 381.517312 309.982456 
L 379.192662 311.115614 
L 376.284448 312.278449 
L 372.730395 313.453386 
L 368.482124 314.617733 
L 363.508369 315.74522 
L 357.802307 316.8064 
L 351.37941 317.77103 
L 344.292906 318.607525 
L 336.626244 319.286521 
L 328.486495 319.782765 
L 324.599847 319.944528 
L 324.599847 319.944528 
" clip-path="url(#pb705e8c4eb)" style="fill: none; stroke: #008000; stroke-opacity: 0.5; stroke-width: 1.5; stroke-linecap: square"/>
   </g>
   <g id="line2d_8">
    <path d="M 300.818334 287.800927 
L 292.186607 288.225277 
L 284.156146 288.843324 
L 276.642909 289.641563 
L 269.757748 290.592956 
L 263.582918 291.666202 
L 258.165411 292.828289 
L 253.519127 294.046391 
L 249.629 295.289373 
L 246.454358 296.529653 
L 243.936785 297.743575 
L 242.003855 298.913265 
L 240.577516 300.026324 
L 239.579187 301.076643 
L 238.934917 302.065864 
L 238.582281 303.003467 
L 238.476572 303.906218 
L 238.596029 304.796665 
L 238.944389 305.6981 
L 239.548827 306.630338 
L 240.455409 307.607246 
L 241.722614 308.63499 
L 243.417645 309.713816 
L 245.610867 310.837591 
L 248.372221 311.994919 
L 251.764434 313.168721 
L 255.841021 314.337959 
L 260.637274 315.476961 
L 266.167599 316.557175 
L 272.419976 317.548017 
L 279.352151 318.418331 
L 286.889235 319.138121 
L 294.92728 319.680737 
L 303.335492 320.024441 
L 311.950873 320.153921 
L 320.59716 320.062585 
L 324.599847 319.944528 
L 324.599847 319.944528 
" clip-path="url(#pb705e8c4eb)" style="fill: none; stroke: #008000; stroke-opacity: 0.5; stroke-width: 1.5; stroke-linecap: square"/>
   </g>
   <g id="text_1">
    <!-- M -->
    <g transform="translate(217.595455 118.554545)scale(0.1 -0.1)">
     <defs>
      <path id="DejaVuSans-4d" d="M 628 4666 
L 1569 4666 
L 2759 1491 
L 3956 4666 
L 4897 4666 
L 4897 0 
L 4281 0 
L 4281 4097 
L 3078 897 
L 2444 897 
L 1241 4097 
L 1241 0 
L 628 0 
L 628 4666 
z
" transform="scale(0.015625)"/>
     </defs>
     <use xlink:href="#DejaVuSans-4d"/>
    </g>
   </g>
   <g id="text_2">
    <!-- S -->
    <g transform="translate(217.595455 296.46)scale(0.1 -0.1)">
     <defs>
      <path id="DejaVuSans-53" d="M 3425 4513 
L 3425 3897 
Q 3066 4069 2747 4153 
Q 2428 4238 2131 4238 
Q 1616 4238 1336 4038 
Q 1056 3838 1056 3469 
Q 1056 3159 1242 3001 
Q 1428 2844 1947 2747 
L 2328 2669 
Q 3034 2534 3370 2195 
Q 3706 1856 3706 1288 
Q 3706 609 3251 259 
Q 2797 -91 1919 -91 
Q 1588 -91 1214 -16 
Q 841 59 441 206 
L 441 856 
Q 825 641 1194 531 
Q 1563 422 1919 422 
Q 2459 422 2753 634 
Q 3047 847 3047 1241 
Q 3047 1584 2836 1778 
Q 2625 1972 2144 2069 
L 1759 2144 
Q 1053 2284 737 2584 
Q 422 2884 422 3419 
Q 422 4038 858 4394 
Q 1294 4750 2059 4750 
Q 2388 4750 2728 4690 
Q 3069 4631 3425 4513 
z
" transform="scale(0.015625)"/>
     </defs>
     <use xlink:href="#DejaVuSans-53"/>
    </g>
   </g>
   <g id="text_3">
    <!-- V -->
    <g transform="translate(135.797727 214.92)scale(0.1 -0.1)">
     <defs>
      <path id="DejaVuSans-56" d="M 1831 0 
L 50 4666 
L 709 4666 
L 2188 738 
L 3669 4666 
L 4325 4666 
L 2547 0 
L 1831 0 
z
" transform="scale(0.015625)"/>
     </defs>
     <use xlink:href="#DejaVuSans-56"/>
    </g>
   </g>
   <g id="text_4">
    <!-- U -->
    <g transform="translate(316.513636 218.626364)scale(0.1 -0.1)">
     <defs>
      <path id="DejaVuSans-55" d="M 556 4666 
L 1191 4666 
L 1191 1831 
Q 1191 1081 1462 751 
Q 1734 422 2344 422 
Q 2950 422 3222 751 
Q 3494 1081 3494 1831 
L 3494 4666 
L 4128 4666 
L 4128 1753 
Q 4128 841 3676 375 
Q 3225 -91 2344 -91 
Q 1459 -91 1007 375 
Q 556 841 556 1753 
L 556 4666 
z
" transform="scale(0.015625)"/>
     </defs>
     <use xlink:href="#DejaVuSans-55"/>
    </g>
   </g>
  </g>
  <g id="patch_2">
   <path d="M 206.181818 125.967273 
Q 221.4 125.967273 235.500148 125.967273 
" style="fill: none; stroke: #000000; stroke-linecap: round"/>
   <path d="M 227.500148 121.967273 
L 235.500148 125.967273 
L 227.500148 129.967273 
L 227.500148 121.967273 
z
" style="stroke: #000000; stroke-linecap: round"/>
  </g>
  <g id="patch_3">
   <path d="M 206.181818 303.872727 
Q 221.4 303.872727 235.500148 303.872727 
" style="fill: none; stroke: #000000; stroke-linecap: round"/>
   <path d="M 227.500148 299.872727 
L 235.500148 303.872727 
L 227.500148 307.872727 
L 227.500148 299.872727 
z
" style="stroke: #000000; stroke-linecap: round"/>
  </g>
  <g id="patch_4">
   <path d="M 130.090909 200.094545 
Q 130.090909 214.92 130.090909 228.627421 
" style="fill: none; stroke: #000000; stroke-linecap: round"/>
   <path d="M 134.090909 220.627421 
L 130.090909 228.627421 
L 126.090909 220.627421 
L 134.090909 220.627421 
z
" style="stroke: #000000; stroke-linecap: round"/>
  </g>
  <g id="patch_5">
   <path d="M 312.709091 201.212579 
Q 312.709091 214.92 312.709091 229.745455 
" style="fill: none; stroke: #000000; stroke-linecap: round"/>
   <path d="M 308.709091 209.212579 
L 312.709091 201.212579 
L 316.709091 209.212579 
L 308.709091 209.212579 
z
" style="stroke: #000000; stroke-linecap: round"/>
  </g>
 </g>
 <defs>
  <clipPath id="p1fdfa5af39">
   <rect x="54" y="51.84" width="152.181818" height="148.254545"/>
  </clipPath>
  <clipPath id="pcd263e9a8b">
   <rect x="236.618182" y="51.84" width="152.181818" height="148.254545"/>
  </clipPath>
  <clipPath id="pd3ee644912">
   <rect x="54" y="229.745455" width="152.181818" height="148.254545"/>
  </clipPath>
  <clipPath id="pb705e8c4eb">
   <rect x="236.618182" y="229.745455" width="152.181818" height="148.254545"/>
  </clipPath>
 </defs>
</svg>
